<svg width="351" height="34" viewBox="0 0 351 34" fill="none" xmlns="http://www.w3.org/2000/svg">
<path d="M1.86914 0.40625L12.3984 24.6113L22.9629 0.40625H24.3516V26H23.4023V1.8125L12.7852 26H12.0293L1.46484 1.93555V26H0.515625V0.40625H1.86914ZM55.7777 26C55.5434 25.1914 55.4262 24.0312 55.4262 22.5195C54.6762 23.7383 53.6508 24.6816 52.35 25.3496C51.0492 26.0176 49.5785 26.3516 47.9379 26.3516C46.1801 26.3516 44.7621 25.877 43.684 24.9277C42.6176 23.9668 42.0844 22.7188 42.0844 21.1836C42.0844 19.4375 42.8695 18.043 44.4398 17C46.0219 15.9453 48.1195 15.4062 50.7328 15.3828H55.4262V12.6055C55.4262 11.0117 54.9223 9.77539 53.9145 8.89648C52.9184 8.01758 51.4887 7.57812 49.6254 7.57812C47.891 7.57812 46.4437 8.02344 45.2836 8.91406C44.1234 9.80469 43.5434 10.9062 43.5434 12.2188L42.5941 12.1836C42.5941 10.6367 43.2738 9.32422 44.6332 8.24609C45.9926 7.16797 47.6566 6.62891 49.6254 6.62891C51.6762 6.62891 53.3051 7.14453 54.5121 8.17578C55.7191 9.19531 56.3402 10.6367 56.3754 12.5V21.5879C56.3754 23.6738 56.5395 25.0918 56.8676 25.8418V26H55.7777ZM47.9379 25.4199C49.7191 25.4199 51.2484 25.0215 52.5258 24.2246C53.8148 23.4277 54.7816 22.3086 55.4262 20.8672V16.3496H51.0316C48.3129 16.3496 46.2328 16.8887 44.7914 17.9668C43.6195 18.8457 43.0336 19.9414 43.0336 21.2539C43.0336 22.4141 43.4965 23.3984 44.4223 24.207C45.348 25.0156 46.5199 25.4199 47.9379 25.4199ZM86.8348 21.3418C86.8348 19.0332 84.866 17.4629 80.9285 16.6309C78.5613 16.127 76.9148 15.4824 75.9891 14.6973C75.0633 13.9004 74.6004 12.8105 74.6004 11.4277C74.6004 10.0332 75.1863 8.88477 76.3582 7.98242C77.5418 7.08008 79.077 6.62891 80.9637 6.62891C83.0145 6.62891 84.6609 7.12109 85.9031 8.10547C87.1453 9.07812 87.7664 10.3965 87.7664 12.0605H86.7996C86.7996 10.7832 86.2605 9.7168 85.1824 8.86133C84.1043 8.00586 82.698 7.57812 80.9637 7.57812C79.2996 7.57812 77.9812 7.94141 77.0086 8.66797C76.0359 9.39453 75.5496 10.3027 75.5496 11.3926C75.5496 12.248 75.7312 12.9219 76.0945 13.4141C76.4578 13.8945 77.0496 14.334 77.8699 14.7324C78.6902 15.1191 79.8855 15.4941 81.4559 15.8574C83.0262 16.2207 84.2684 16.6484 85.1824 17.1406C86.0965 17.6328 86.7586 18.2188 87.1687 18.8984C87.5789 19.5664 87.784 20.3867 87.784 21.3594C87.784 22.8594 87.1687 24.0664 85.9383 24.9805C84.7078 25.8945 83.0965 26.3516 81.1043 26.3516C78.9715 26.3516 77.2488 25.8711 75.9363 24.9102C74.6355 23.9375 73.9852 22.6895 73.9852 21.166H74.9344C75.0281 22.502 75.6141 23.5449 76.6922 24.2949C77.782 25.0332 79.2527 25.4023 81.1043 25.4023C82.8035 25.4023 84.1805 25.0098 85.2352 24.2246C86.3016 23.4277 86.8348 22.4668 86.8348 21.3418ZM107.767 1.84766V6.98047H112.091V7.94727H107.767V21.4473C107.767 22.7949 107.984 23.791 108.417 24.4355C108.863 25.0801 109.601 25.4023 110.632 25.4023C111.148 25.4023 111.775 25.3496 112.513 25.2441L112.671 26.1406C112.284 26.2812 111.622 26.3516 110.685 26.3516C109.302 26.3516 108.312 25.9707 107.714 25.209C107.116 24.4355 106.812 23.2227 106.8 21.5703V7.94727H103.284V6.98047H106.8V1.84766H107.767ZM136.468 26.3516C134.933 26.3516 133.521 25.9414 132.232 25.1211C130.955 24.2891 129.953 23.1523 129.226 21.7109C128.5 20.2695 128.136 18.6699 128.136 16.9121V16.1211C128.136 14.3633 128.488 12.752 129.191 11.2871C129.894 9.82227 130.861 8.67969 132.091 7.85938C133.322 7.03906 134.664 6.62891 136.117 6.62891C138.238 6.62891 139.972 7.38477 141.32 8.89648C142.668 10.4082 143.341 12.3945 143.341 14.8555V15.8574H129.086V16.8945C129.086 18.4414 129.408 19.877 130.052 21.2012C130.709 22.5137 131.605 23.5449 132.742 24.2949C133.89 25.0449 135.132 25.4199 136.468 25.4199C137.746 25.4199 138.83 25.209 139.72 24.7871C140.623 24.3535 141.42 23.6914 142.111 22.8008L142.779 23.2754C141.361 25.3262 139.257 26.3516 136.468 26.3516ZM136.117 7.57812C134.265 7.57812 132.695 8.26953 131.406 9.65234C130.117 11.0234 129.361 12.7754 129.138 14.9082H142.392V14.6797C142.392 13.3906 142.117 12.1953 141.566 11.0938C141.027 9.98047 140.277 9.11914 139.316 8.50977C138.367 7.88867 137.3 7.57812 136.117 7.57812ZM168.756 7.66602L167.525 7.56055C165.908 7.56055 164.555 8.08789 163.465 9.14258C162.375 10.1855 161.66 11.6504 161.32 13.5371V26H160.371V6.98047H161.32V10.9355C161.836 9.61133 162.609 8.5625 163.641 7.78906C164.672 7.01562 165.967 6.62891 167.525 6.62891C168.076 6.62891 168.521 6.69336 168.861 6.82227L168.756 7.66602ZM196.754 21.3418C196.754 19.0332 194.786 17.4629 190.848 16.6309C188.481 16.127 186.834 15.4824 185.909 14.6973C184.983 13.9004 184.52 12.8105 184.52 11.4277C184.52 10.0332 185.106 8.88477 186.278 7.98242C187.461 7.08008 188.996 6.62891 190.883 6.62891C192.934 6.62891 194.58 7.12109 195.823 8.10547C197.065 9.07812 197.686 10.3965 197.686 12.0605H196.719C196.719 10.7832 196.18 9.7168 195.102 8.86133C194.024 8.00586 192.618 7.57812 190.883 7.57812C189.219 7.57812 187.901 7.94141 186.928 8.66797C185.955 9.39453 185.469 10.3027 185.469 11.3926C185.469 12.248 185.651 12.9219 186.014 13.4141C186.377 13.8945 186.969 14.334 187.789 14.7324C188.61 15.1191 189.805 15.4941 191.375 15.8574C192.946 16.2207 194.188 16.6484 195.102 17.1406C196.016 17.6328 196.678 18.2188 197.088 18.8984C197.498 19.5664 197.704 20.3867 197.704 21.3594C197.704 22.8594 197.088 24.0664 195.858 24.9805C194.627 25.8945 193.016 26.3516 191.024 26.3516C188.891 26.3516 187.168 25.8711 185.856 24.9102C184.555 23.9375 183.905 22.6895 183.905 21.166H184.854C184.948 22.502 185.534 23.5449 186.612 24.2949C187.702 25.0332 189.172 25.4023 191.024 25.4023C192.723 25.4023 194.1 25.0098 195.155 24.2246C196.221 23.4277 196.754 22.4668 196.754 21.3418ZM255.388 15.1191C255.388 17.334 254.989 19.2969 254.193 21.0078C253.407 22.707 252.282 24.0254 250.818 24.9629C249.353 25.8887 247.665 26.3516 245.755 26.3516C242.872 26.3516 240.54 25.3262 238.759 23.2754C236.978 21.2246 236.087 18.459 236.087 14.9785V11.2871C236.087 9.08398 236.48 7.12695 237.265 5.41602C238.062 3.70508 239.193 2.38672 240.657 1.46094C242.134 0.523438 243.821 0.0546875 245.72 0.0546875C247.63 0.0546875 249.318 0.523438 250.782 1.46094C252.259 2.38672 253.396 3.71094 254.193 5.43359C254.989 7.14453 255.388 9.0957 255.388 11.2871V15.1191ZM254.439 11.252C254.439 8.1582 253.654 5.67969 252.083 3.81641C250.513 1.94141 248.392 1.00391 245.72 1.00391C243.083 1.00391 240.98 1.93555 239.409 3.79883C237.839 5.65039 237.054 8.17578 237.054 11.375V15.1191C237.054 17.1582 237.405 18.9629 238.109 20.5332C238.823 22.0918 239.837 23.293 241.15 24.1367C242.462 24.9805 243.997 25.4023 245.755 25.4023C248.427 25.4023 250.542 24.4707 252.101 22.6074C253.659 20.7441 254.439 18.2012 254.439 14.9785V11.252ZM287.886 16.666C287.886 19.6309 287.248 21.9863 285.97 23.7324C284.693 25.4785 282.953 26.3516 280.75 26.3516C279.308 26.3516 278.025 26.0586 276.9 25.4727C275.775 24.8867 274.896 24.0781 274.263 23.0469V33.3125H273.314V6.98047H274.263V10.373C274.92 9.16602 275.804 8.24023 276.918 7.5957C278.031 6.95117 279.296 6.62891 280.714 6.62891C282.941 6.62891 284.693 7.48438 285.97 9.19531C287.248 10.8945 287.886 13.2852 287.886 16.3672V16.666ZM286.92 16.2969C286.92 13.5664 286.375 11.4336 285.285 9.89844C284.207 8.35156 282.689 7.57812 280.732 7.57812C279.138 7.57812 277.785 7.99414 276.671 8.82617C275.558 9.64648 274.755 10.8301 274.263 12.377V21.2715C274.755 22.584 275.558 23.6035 276.671 24.3301C277.796 25.0449 279.162 25.4023 280.767 25.4023C282.712 25.4023 284.224 24.6289 285.302 23.082C286.38 21.5352 286.92 19.2734 286.92 16.2969ZM312.51 26.3516C310.975 26.3516 309.562 25.9414 308.273 25.1211C306.996 24.2891 305.994 23.1523 305.268 21.7109C304.541 20.2695 304.178 18.6699 304.178 16.9121V16.1211C304.178 14.3633 304.529 12.752 305.232 11.2871C305.936 9.82227 306.902 8.67969 308.133 7.85938C309.363 7.03906 310.705 6.62891 312.158 6.62891C314.279 6.62891 316.014 7.38477 317.361 8.89648C318.709 10.4082 319.383 12.3945 319.383 14.8555V15.8574H305.127V16.8945C305.127 18.4414 305.449 19.877 306.094 21.2012C306.75 22.5137 307.646 23.5449 308.783 24.2949C309.932 25.0449 311.174 25.4199 312.51 25.4199C313.787 25.4199 314.871 25.209 315.762 24.7871C316.664 24.3535 317.461 23.6914 318.152 22.8008L318.82 23.2754C317.402 25.3262 315.299 26.3516 312.51 26.3516ZM312.158 7.57812C310.307 7.57812 308.736 8.26953 307.447 9.65234C306.158 11.0234 305.402 12.7754 305.18 14.9082H318.434V14.6797C318.434 13.3906 318.158 12.1953 317.607 11.0938C317.068 9.98047 316.318 9.11914 315.357 8.50977C314.408 7.88867 313.342 7.57812 312.158 7.57812ZM337.362 11.4102C337.983 9.93359 338.897 8.76758 340.104 7.91211C341.311 7.05664 342.647 6.62891 344.112 6.62891C346.151 6.62891 347.663 7.20898 348.647 8.36914C349.643 9.51758 350.147 11.2578 350.159 13.5898V26H349.209V13.5547C349.198 11.5156 348.782 10.0098 347.961 9.03711C347.141 8.05273 345.84 7.56055 344.059 7.56055C342.418 7.56055 340.995 8.14648 339.788 9.31836C338.592 10.4785 337.784 11.9785 337.362 13.8184V26H336.413V6.98047H337.362V11.4102Z" fill="#FDF0D5"/>
</svg>
